<svg height="300" width="300" xmlns="http://www.w3.org/2000/svg" viewBox="0 0 64 64">
    <path d="M28.64 49.315c-5.057 0-10.114-.014-15.17.013-.924.005-1.634-.259-2.287-.932a269.32 269.32 0 0 0-5.882-5.876c-.599-.581-.605-.966-.005-1.549 2.068-2.01 4.062-4.098 6.154-6.081.435-.413 1.173-.712 1.773-.714 8.427-.027 16.854.012 25.281.024 1.872.003 3.745-.006 5.616-.069.926-.031 1.262.325 1.256 1.243-.03 4.27-.035 8.54-.01 12.81.005.908-.377 1.14-1.22 1.135-5.169-.027-10.337-.013-15.506-.013v.009zM18.808 24.405V9.515c.466-.023.867-.059 1.268-.059 10.308-.002 20.616-.011 30.923.031.555.002 1.236.304 1.642.692 2.059 1.967 4.028 4.028 6.072 6.011.619.6.555.98-.029 1.548-2.044 1.984-4.019 4.04-6.082 6.003-.41.39-1.094.693-1.653.696-10.345.041-20.69.03-31.035.028-.331-.002-.661-.036-1.106-.06zM27.855 6.546c-.01-1.038-.01-1.921-.019-2.639v-.543c-.01-.66.243-1.281.699-1.746A2.455 2.455 0 0 1 30.28.89h3.745c.66 0 1.271.262 1.737.728a2.44 2.44 0 0 1 .708 1.746l-.01.543c-.01.718-.01 1.611-.01 2.639h-8.595zM28.34 31.277h-.825c.058-1.319.107-2.62.146-3.9h5.142c1.281 0 2.552 0 3.832-.01.039 1.281.087 2.6.146 3.92h-.592l-7.849-.01zM40.312 62.13a2.436 2.436 0 0 1-1.96.98H25.953a2.441 2.441 0 0 1-1.97-.98 2.404 2.404 0 0 1-.378-2.154c.66-2.222 1.281-5.462 1.281-5.501.175-.689.33-1.426.495-2.251h.427l7.82-.01c1.756 0 3.522 0 5.297.01.155.815.31 1.543.475 2.202.01.087.64 3.328 1.3 5.55a2.439 2.439 0 0 1-.388 2.154z"/>
</svg>
